HIERARCHY
ROOT root
{
	OFFSET	0	13.1	24.9
	CHANNELS 6  Xposition Yposition Zposition Xrotation Yrotation Zrotation
	JOINT spine_1
	{
		OFFSET	0	9.99999	0
		CHANNELS 3  Xrotation Yrotation Zrotation
		JOINT spine_2
		{
			OFFSET	0	112	-10
			CHANNELS 3  Xrotation Yrotation Zrotation
			JOINT spine_3
			{
				OFFSET	0	206.5	19.3
				CHANNELS 3  Xrotation Yrotation Zrotation
				JOINT spine_4
				{
					OFFSET	0	110.4	14.6
					CHANNELS 3  Xrotation Yrotation Zrotation
					JOINT neck_1
					{
						OFFSET	0	71.8	-50.3
						CHANNELS 3  Xrotation Yrotation Zrotation
						JOINT neck_2
						{
							OFFSET	0	86.2	-25.8
							CHANNELS 3  Xrotation Yrotation Zrotation
							JOINT head_ee
							{
								OFFSET	0	179.8	-8.7
								CHANNELS 3  Xrotation Yrotation Zrotation
								End Site
								{
									OFFSET	1	0	0
								}
							}
						}
					}
					JOINT left_clavicle
					{
						OFFSET	-43.2	22.4	-70.8
						CHANNELS 3  Xrotation Yrotation Zrotation
						JOINT left_shoulder
						{
							OFFSET	-93.9	-5.79999	48.7
							CHANNELS 3  Xrotation Yrotation Zrotation
							JOINT left_elbow
							{
								OFFSET	-291.4	-30.8	15.2
								CHANNELS 3  Xrotation Yrotation Zrotation
								JOINT left_lowarm_twist
								{
									OFFSET	-110.7	-3.89999	13.6
									CHANNELS 3  Xrotation Yrotation Zrotation
									JOINT left_hand
									{
										OFFSET	-110.7	-3.89999	13.6
										CHANNELS 3  Xrotation Yrotation Zrotation
										JOINT left_ee
										{
											OFFSET	-80.8	-5.10001	12.1
											CHANNELS 3  Xrotation Yrotation Zrotation
											End Site
											{
												OFFSET	1	0	0
											}
										}
									}
								}
							}
						}
					}
					JOINT right_clavicle
					{
						OFFSET	43.2	22.4	-70.8
						CHANNELS 3  Xrotation Yrotation Zrotation
						JOINT right_shoulder
						{
							OFFSET	93.9	-5.79999	48.7
							CHANNELS 3  Xrotation Yrotation Zrotation
							JOINT right_elbow
							{
								OFFSET	291.4	-30.8	15.2
								CHANNELS 3  Xrotation Yrotation Zrotation
								JOINT right_lowarm_twist
								{
									OFFSET	110.7	-3.89999	13.6
									CHANNELS 3  Xrotation Yrotation Zrotation
									JOINT right_hand
									{
										OFFSET	110.7	-3.89999	13.6
										CHANNELS 3  Xrotation Yrotation Zrotation
										JOINT right_ee
										{
											OFFSET	80.8	-5.10001	12.1
											CHANNELS 3  Xrotation Yrotation Zrotation
											End Site
											{
												OFFSET	1	0	0
											}
										}
									}
								}
							}
						}
					}
				}
			}
		}
	}
	JOINT left_hip
	{
		OFFSET	-82.8	-127.5	0.300001
		CHANNELS 3  Xrotation Yrotation Zrotation
		JOINT left_knee
		{
			OFFSET	-28.2	-396.7	2.2
			CHANNELS 3  Xrotation Yrotation Zrotation
			JOINT left_ankle
			{
				OFFSET	-11.7	-411.3	35.4
				CHANNELS 3  Xrotation Yrotation Zrotation
				JOINT left_toes
				{
					OFFSET	0	-60	-88.6
					CHANNELS 3  Xrotation Yrotation Zrotation
					JOINT left_foot_ee
					{
						OFFSET	-22.5	-16.5	-42.2
						CHANNELS 3  Xrotation Yrotation Zrotation
						End Site
						{
							OFFSET	1	0	0
						}
					}
				}
			}
		}
	}
	JOINT right_hip
	{
		OFFSET	82.8	-127.5	0.300001
		CHANNELS 3  Xrotation Yrotation Zrotation
		JOINT right_knee
		{
			OFFSET	28.2	-396.7	2.2
			CHANNELS 3  Xrotation Yrotation Zrotation
			JOINT right_ankle
			{
				OFFSET	11.7	-411.3	35.4
				CHANNELS 3  Xrotation Yrotation Zrotation
				JOINT right_toes
				{
					OFFSET	0	-60	-88.6
					CHANNELS 3  Xrotation Yrotation Zrotation
					JOINT right_foot_ee
					{
						OFFSET	22.5	-16.5	-42.2
						CHANNELS 3  Xrotation Yrotation Zrotation
						End Site
						{
							OFFSET	1	0	0
						}
					}
				}
			}
		}
	}
}
MOTION
Frames: 10
Frame Time: 0.02
2533.64845711 771.073 -1458.96433887 100.277289987 79.8187769787 -104.904321786 -4.75738 0.429391 0.748487 -4.75715 0.380894 0.774292 -4.75125 0.139619 0.851532 -4.75216 0.272346 0.818799 -4.89109 10.4553 0.967406 -4.81529 18.5004 2.77844 -0.0 0.0 -0.0 -0.00633501 5.01323 0.584541 -13.8139 -5.70871 79.3945 0.345023 -9.69916 0.0292732 -79.9259 -7.81243 5.28074 3.87584 -11.1182 21.9183 -0.0 0.0 -0.0 8.03173 25.6846 -14.5275 1.95278 29.6034 -42.8254 1.43119 35.3334 -0.455858 1.65142 -0.055252 0.203678 2.12279 -19.876 -21.1847 0.0 0.0 0.0 -3.4684 10.5741 1.17074 -28.8095 0.0878221 4.37397 2.64448 28.6134 -0.409918 -39.7994 0.0 0.0 -0.0 0.0 -0.0 3.07759 34.7413 -1.47683 -10.452 -0.287252 -1.5761 -2.41323 -15.4103 -0.357675 16.0954 -0.0 -0.0 0.0 0.0 0.0 
2526.02591494 771.303 -1459.29282506 86.8059470269 80.418883547 -91.2138837937 -4.42152 0.479795 0.905345 -4.42117 0.421215 0.934037 -4.41327 0.137812 1.0153 -4.41459 0.296423 0.980803 -6.383 10.1166 2.07289 -6.35872 17.238 4.04341 -0.0 0.0 -0.0 -0.264562 6.50398 0.296107 -14.6883 -5.92433 79.6745 0.310196 -8.73604 0.0236942 -78.5614 -7.63906 5.2968 3.69335 -9.30733 21.461 -0.0 0.0 -0.0 9.38887 25.8024 -17.5211 3.95183 26.8925 -41.8619 1.86471 42.7252 -0.729424 -2.23291 0.0840072 -0.272738 1.33148 -18.925 -15.8583 0.0 0.0 0.0 -1.47894 9.13237 0.444629 -28.0275 0.11455 4.25694 16.6246 28.7587 -2.47313 -39.3294 0.0 0.0 -0.0 0.0 -0.0 0.495145 34.8066 -1.10507 -4.45028 -0.157479 -0.664657 -3.53015 -16.2028 -0.525313 16.3492 -0.0 -0.0 0.0 0.0 0.0 
2518.66125225 771.586 -1457.49578864 79.8712893663 80.5812318195 -84.0240536116 -4.34789 0.563362 0.974876 -4.3475 0.50019 1.00874 -4.33749 0.193727 1.10915 -4.33902 0.366455 1.06464 -7.18211 10.4656 1.46043 -7.18702 18.4259 3.6183 -0.0 0.0 -0.0 -0.482305 8.05529 0.103134 -14.703 -6.09488 80.1826 0.343452 -9.65581 0.029009 -78.5228 -7.63415 5.2972 3.87801 -7.45928 23.6688 -0.0 0.0 -0.0 9.75086 26.2673 -18.2785 5.22928 26.3086 -41.8207 2.10625 46.2104 -0.8987 -5.22384 0.213086 -0.632618 1.13075 -22.5383 -15.7633 0.0 0.0 0.0 -0.260863 8.78885 -1.12765 -24.4059 0.217381 3.71074 22.9277 28.2763 -3.31498 -40.2558 0.0 0.0 -0.0 0.0 -0.0 -1.27212 34.6185 -0.831675 -0.267825 -0.0109353 -0.0396456 -3.80295 -15.278 -0.565051 15.7428 -0.0 -0.0 0.0 0.0 0.0 
2507.58450159 771.078 -1451.50456378 83.1883681915 81.1352547976 -87.07570757 -4.25393 0.337383 0.962602 -4.25345 0.275449 0.982117 -4.2477 -0.0126876 1.01993 -4.24912 0.148542 1.00914 -7.3184 10.3445 1.82964 -7.32536 17.9517 3.97965 -0.0 0.0 -0.0 -0.481069 10.0523 0.361836 -15.6474 -6.27846 80.3549 0.377713 -10.5981 0.0350333 -78.1109 -7.58172 5.30119 3.83072 -6.71594 23.6622 -0.0 0.0 -0.0 10.538 25.7995 -20.0919 5.96339 24.105 -41.8968 2.44069 50.3982 -1.14859 -6.81371 0.289313 -0.821079 0.76589 -22.4922 -13.5489 0.0 0.0 0.0 -0.856696 9.32716 -1.12758 -13.4918 0.316392 2.04155 27.5938 28.5433 -3.91264 -40.1586 0.0 0.0 -0.0 0.0 -0.0 -2.60972 34.5384 -0.337539 1.45796 0.0627771 0.214912 -3.70511 -14.8698 -0.549962 16.2939 -0.0 -0.0 0.0 0.0 0.0 
2428.23501163 782.079 -1441.14789541 47.1361548975 76.7366704265 -48.3595029411 -3.66315 0.364514 0.311549 -3.66317 0.343951 0.334112 -3.66105 0.240036 0.415109 -3.66116 0.302582 0.371991 -4.90465 11.2864 2.10954 -4.82097 19.1786 4.08533 -0.0 0.0 -0.0 -0.199891 17.215 1.70958 -15.7819 -6.6459 78.3726 0.557243 -15.4319 0.0755008 -67.7601 -6.26055 5.27654 2.7059 -3.36494 17.0283 -0.0 0.0 -0.0 9.48983 25.9918 -17.726 -0.137634 15.6406 -49.6535 3.76201 61.7655 -2.2505 -7.0138 0.299277 -0.844647 -0.283052 -7.74696 -1.38757 0.0 0.0 0.0 -10.1323 9.4891 -1.75778 -1.66265 0.0648798 0.246902 8.59094 27.9832 -1.30565 -31.8821 0.0 0.0 -0.0 0.0 -0.0 -7.37463 34.178 -0.376511 -0.972538 -0.0388213 -0.144198 4.24221 -19.1865 0.62541 21.9979 -0.0 -0.0 0.0 0.0 0.0 
2417.21390145 782.886 -1438.48278771 44.5394989638 75.1957899621 -45.3763609968 -3.65463 0.390645 0.31454 -3.65465 0.369839 0.33876 -3.65235 0.263747 0.426587 -3.65246 0.327808 0.37958 -6.2697 11.6401 3.24573 -6.225 19.1972 5.4977 -0.0 0.0 -0.0 -0.0768253 17.3692 1.91732 -15.0187 -6.62041 78.3044 0.572046 -15.8215 0.0794882 -66.933 -6.15539 5.2642 2.71331 -3.48375 17.0309 -0.0 0.0 -0.0 9.43268 25.9583 -17.6022 -1.5337 15.2571 -50.7478 3.69698 61.3477 -2.19332 -7.13512 0.305358 -0.858921 -0.252741 -7.20966 -1.35952 0.0 0.0 0.0 -10.6463 9.5127 -2.02044 -3.04793 0.113439 0.45395 7.55365 27.5086 -1.14802 -31.2258 0.0 0.0 -0.0 0.0 -0.0 -7.90453 34.1491 -0.531333 -1.97567 -0.0762907 -0.293585 4.45721 -19.2977 0.656977 22.2611 -0.0 -0.0 0.0 0.0 0.0 
2408.39578565 784.798 -1439.54162636 40.8849291815 72.7354017636 -41.6742419071 -3.79862 0.379269 0.296608 -3.79864 0.359626 0.32014 -3.79653 0.257962 0.406542 -3.79662 0.31893 0.3607 -5.93635 11.4573 2.77968 -5.88531 19.1484 4.94611 -0.0 0.0 -0.0 0.00503476 17.5608 2.06501 -14.4221 -6.54191 78.1842 0.591159 -16.3224 0.0847797 -66.4931 -6.09952 5.25702 2.6138 -3.10794 16.4879 -0.0 0.0 -0.0 9.33548 26.0628 -17.3749 -2.69481 14.4625 -51.9417 3.63456 60.9359 -2.13865 -6.9986 0.298517 -0.842859 -0.264457 -6.98924 -1.191 0.0 0.0 0.0 -10.9918 9.54727 -1.81001 -4.76641 0.166693 0.712299 6.46566 27.2176 -0.9839 -30.8658 0.0 0.0 -0.0 0.0 -0.0 -8.5555 34.1257 -0.447893 -2.81126 -0.105498 -0.418496 4.47012 -19.6176 0.65959 22.4317 -0.0 -0.0 0.0 0.0 0.0 
2401.78440742 783.124 -1440.03910483 38.9568086526 71.6639908162 -39.4417268143 -3.65575 0.36613 0.335953 -3.65576 0.34401 0.35857 -3.65347 0.233495 0.438629 -3.65361 0.299837 0.396248 -6.55374 11.5654 2.75871 -6.52524 19.4562 5.03977 -0.0 0.0 -0.0 0.0742993 17.5919 2.17472 -13.1604 -6.69146 77.5193 0.633505 -17.423 0.0970709 -65.7955 -6.01103 5.24475 2.34195 -1.23363 15.3563 -0.0 0.0 -0.0 8.79465 26.5824 -16.1192 -3.41894 14.0664 -53.9312 3.43354 59.533 -1.96414 -6.75992 0.286648 -0.814737 -0.36985 -8.55292 -1.16402 0.0 0.0 0.0 -11.5732 8.72527 -1.40552 -5.41511 0.184775 0.810209 4.44385 27.419 -0.680686 -30.1309 0.0 0.0 -0.0 0.0 -0.0 -8.52061 33.3861 -0.760359 -3.45442 -0.126736 -0.514917 5.61451 -19.7807 0.826344 23.7387 -0.0 -0.0 0.0 0.0 0.0 
2395.676086 783.0 -1444.87183708 37.2853053935 70.8406807177 -37.5785969755 -3.61319 0.325578 0.37729 -3.61316 0.300911 0.397242 -3.61091 0.181845 0.463983 -3.61112 0.252839 0.429442 -7.02984 11.7199 3.10224 -7.01539 19.5671 5.48695 -0.0 0.0 -0.0 0.0195097 17.5805 2.08944 -11.826 -7.00191 77.1668 0.692804 -18.942 0.115576 -65.5123 -5.97515 5.23946 2.18765 -0.229315 14.6898 -0.0 0.0 -0.0 8.27135 27.7572 -14.8342 -4.33055 13.7511 -55.6536 3.33112 58.7701 -1.8762 -6.262 0.262268 -0.755918 -0.450706 -10.2979 -1.37817 0.0 0.0 0.0 -12.4322 8.26057 -1.18525 -4.14569 0.148352 0.618803 3.0163 27.615 -0.464214 -29.6286 0.0 0.0 -0.0 0.0 -0.0 -8.50305 32.3655 -0.833276 -4.24573 -0.151377 -0.633859 5.73441 -20.0781 0.844623 24.7836 -0.0 -0.0 0.0 0.0 0.0 
2395.58445119 783.0 -1446.18698238 36.9636933777 70.692447105 -37.2379731732 -3.61319 0.325578 0.37729 -3.61316 0.300911 0.397242 -3.61091 0.181845 0.463983 -3.61112 0.252839 0.429442 -7.02984 11.7199 3.10224 -7.01539 19.5671 5.48695 -0.0 0.0 -0.0 0.0195097 17.5805 2.08944 -11.826 -7.00191 77.1668 0.692804 -18.942 0.115576 -65.5123 -5.97515 5.23946 2.18765 -0.229315 14.6898 -0.0 0.0 -0.0 8.27135 27.7572 -14.8342 -4.33055 13.7511 -55.6536 3.33112 58.7701 -1.8762 -6.262 0.262268 -0.755918 -0.450706 -10.2979 -1.37817 0.0 0.0 0.0 -12.4322 8.26057 -1.18525 -4.14569 0.148352 0.618803 3.0163 27.615 -0.464214 -29.6286 0.0 0.0 -0.0 0.0 -0.0 -8.50305 32.3655 -0.833276 -4.24573 -0.151377 -0.633859 5.73441 -20.0781 0.844623 24.7836 -0.0 -0.0 0.0 0.0 0.0 
